<svg id="Layer_1" data-name="Layer 1" xmlns="http://www.w3.org/2000/svg" viewBox="0 0 1835.17 322.63"><defs><style>.cls-1{fill:#636569;}.cls-2{fill:#005487;}</style></defs><title>logo</title><path class="cls-1" d="M176.9,70.67,154.08,98.48,87,10.22A3.84,3.84,0,0,0,84,8.69H55.7a3.83,3.83,0,0,0-3.07,6.12L154.11,150l57.17-74.7a3.83,3.83,0,0,0-3.07-6.12H180A3.84,3.84,0,0,0,176.9,70.67Z" transform="translate(-4.92 -8.69)"/><path class="cls-2" d="M278.2,264.73,207.25,170,302.17,45.14A3.83,3.83,0,0,0,299.12,39h-28a3.82,3.82,0,0,0-3,1.51L169.14,170l74.49,99.36a3.84,3.84,0,0,0,3.06,1.53h28.44A3.83,3.83,0,0,0,278.2,264.73Z" transform="translate(-4.92 -8.69)"/><path class="cls-2" d="M29.77,75.28l71,94.63-95,125A3.83,3.83,0,0,0,8.76,301h28a3.85,3.85,0,0,0,3.05-1.5l99.06-129.63L64.35,70.68a3.86,3.86,0,0,0-3.07-1.53H32.84A3.83,3.83,0,0,0,29.77,75.28Z" transform="translate(-4.92 -8.69)"/><path class="cls-1" d="M131.13,269.33,154,241.52,221,329.78a3.84,3.84,0,0,0,3.07,1.53h28.25a3.83,3.83,0,0,0,3.07-6.12L153.93,190l-57.18,74.7a3.83,3.83,0,0,0,3.07,6.12h28.26A3.81,3.81,0,0,0,131.13,269.33Z" transform="translate(-4.92 -8.69)"/><path class="cls-1" d="M513.84,270.85H500.51a5.46,5.46,0,0,1-5.43-5.44V104.26c0-.55,0-.82-.27-.82s-.27,0-.55.54L444,210.74a7.86,7.86,0,0,1-14.23,0L379.58,104c-.27-.54-.27-.54-.54-.54s-.27.27-.27.82V265.41a5.46,5.46,0,0,1-5.44,5.44H360a5.45,5.45,0,0,1-5.43-5.44V76.81a7.88,7.88,0,0,1,7.88-7.89h17.67c4.89,0,7.06,1.09,8.69,4.63l44.84,93.21c1.09,2.45,1.91,3,3.27,3s2.17-.54,3.26-3L485,73.55c1.63-3.54,3.8-4.63,8.69-4.63h17.67a7.88,7.88,0,0,1,7.88,7.89v188.6a5.46,5.46,0,0,1-5.43,5.44" transform="translate(-4.92 -8.69)"/><path class="cls-1" d="M1199.19,102.89c-.81-3.26-1.63-4.34-4.35-4.34s-3.53,1.08-4.34,4.34l-19.57,80.72h47.83Zm73.38,168h-28.81c-2.44,0-4.61-2.18-5.16-4.62l-12.5-51.64h-62.51l-12.5,51.64c-.54,2.44-2.72,4.62-5.16,4.62h-28.81a4.65,4.65,0,0,1-4.9-4.62,11.57,11.57,0,0,0,.28-1.36l44.57-170.4c8.35-29.88,26.09-27.72,37.77-27.72s29.69-2.79,37.78,27.72l44.57,170.4a12,12,0,0,0,.27,1.36,4.64,4.64,0,0,1-4.89,4.62M1157.07,94.47c8.35-29.88,26.09-27.72,37.77-27.72,14,0,29.69-2.79,37.78,27.72m-75.55,0c8.35-29.88,23.11-27.72,37.77-27.72,14,0,29.69-2.79,37.78,27.72" transform="translate(-4.92 -8.69)"/><path class="cls-1" d="M1618.51,273c-10.4,0-32.8-1.35-47.73-5.43-3.2-.82-5.06-3-5.06-6.25V245a4.48,4.48,0,0,1,4.53-4.35h1.06c12.8,1.63,36.8,3,44.8,3,16.53,0,19.2-5.65,19.2-13,0-5.16-2.67-8.93-13.07-15.42l-34.71-21.69c-13.82-7.78-23.15-21.37-23.15-37.13,0-27.18,16.8-40.77,50.66-40.77,21.6,0,33.86.55,47.46,3.54a5.9,5.9,0,0,1,4.8,6.25v15.77c0,3.25-1.61,4.62-4.28,4.62,0,0-29.85-.83-45-.83-12.79,0-18.29,3.25-18.37,10.8,0,4.35,4,7.68,10.64,11.75l34.93,21.75c22.4,13.86,25.6,27.45,25.6,41.31,0,23.64-17.34,42.39-52.26,42.39" transform="translate(-4.92 -8.69)"/><path class="cls-1" d="M1734.57,273c-10.4,0-32.8-1.35-47.73-5.43-3.19-.82-5.06-3-5.06-6.25V245a4.48,4.48,0,0,1,4.53-4.35h1.06c12.8,1.63,36.8,3,44.8,3,16.53,0,19.2-5.65,19.2-13,0-5.16-2.67-8.93-13.07-15.42l-34.71-21.69c-13.82-7.78-23.15-21.37-23.15-37.13,0-27.18,16.8-40.77,50.67-40.77,21.59,0,33.85.55,47.45,3.54a5.91,5.91,0,0,1,4.81,6.25v15.77c0,3.25-1.62,4.62-4.29,4.62,0,0-29.84-.83-45-.83-12.8,0-18.3,3.25-18.38,10.8-.05,4.35,4,7.68,10.64,11.75l34.93,21.75c22.4,13.86,25.6,27.45,25.6,41.31,0,23.64-17.33,42.39-52.26,42.39" transform="translate(-4.92 -8.69)"/><path class="cls-1" d="M739,142c-12.5,0-30.48,1.72-44.07,9.87V265.48a5.63,5.63,0,0,1-5.43,5.44H676.15a5.41,5.41,0,0,1-5.17-5.44V126.88a5.22,5.22,0,0,1,5.17-5.43h12.78a5.21,5.21,0,0,1,5.15,5.43v5.71c13.6-9.51,32.66-11.29,44.89-11.29,3.8,0,5.71,1.64,5.71,4.9v11.14c0,3-1.91,4.62-5.71,4.62" transform="translate(-4.92 -8.69)"/><path class="cls-1" d="M621.74,199H601.63c-32.89,0-41.58,6.92-41.58,26.21v3.26c0,19.57,9.23,24.73,25,24.73,12.5,0,23.65-5.31,36.69-12.37Zm18.48,71.87h-12.5a5.46,5.46,0,0,1-5.44-5.44v-6c-13,7.6-26.63,13.31-41.85,13.31-23.1,0-44.3-10.06-44.3-44v-3.27c0-29.35,17.13-44,65.5-44h20.11V170.57c0-22.83-7.88-30.71-29.08-30.71-17.67,0-22.25.55-41.78,1h-1.36c-2.44,0-4.89-.81-4.89-4.34V127c0-3,1.9-4.62,5.71-5.16,11.14-1.91,23.84-2.38,42.32-2.38,37.78,0,53,19,53,51.1v94.84a5.45,5.45,0,0,1-5.43,5.44" transform="translate(-4.92 -8.69)"/><path class="cls-1" d="M862.39,270.85H842.82c-3,0-4.08-.82-6.25-3.53l-54.08-66.86v65a5.46,5.46,0,0,1-5.44,5.44H764a5.45,5.45,0,0,1-5.43-5.44V71.91A5.44,5.44,0,0,1,764,66.48h13a5.45,5.45,0,0,1,5.44,5.43V185l46.77-61.15c1.64-1.9,2.72-2.44,5.44-2.44h19c2.71,0,4.07,1.35,4.07,3a4.33,4.33,0,0,1-1.36,3L804.23,192l60.33,72.83a3.81,3.81,0,0,1,.82,2.45c0,1.9-1.09,3.53-3,3.53" transform="translate(-4.92 -8.69)"/><path class="cls-1" d="M1068,271.64a104.21,104.21,0,0,1-13.7,1c-25,0-37-6.52-37-36.41V141.42H994.8c-5.3-.37-8.95-11-8.95-15.22s2.17-4.89,5.17-4.89h26.35V92.5a5.53,5.53,0,0,1,4.89-5.43h15a4.31,4.31,0,0,1,4.08,4.61v29.63h26.2a5.45,5.45,0,0,1,5.44,5.43V136a5.46,5.46,0,0,1-5.44,5.44h-26.2v94.85c0,14.94,3.8,17.12,14.68,17.12l11.25.31c3.8,0,5.71,1.09,5.71,3.81V267c0,2.44-1.36,4.07-4.9,4.62" transform="translate(-4.92 -8.69)"/><path class="cls-1" d="M957.26,182.93c0-30.71-9.58-42.66-33-42.66-22.86,0-35.62,13.31-35.62,42.66v2.45h68.6ZM974,203.58H888.66v3.81c0,32.34,12.5,44.3,37,44.3,15.41,0,33.23-1.09,45.46-3h1.33c2.13,0,4.25,1.09,4.25,3.8v9.24c0,3.53-1.06,5.44-5.32,6.25a217.43,217.43,0,0,1-45.72,4.63c-30.58,0-60.35-14.68-60.35-65.23V182.93c0-38.86,21-63.59,59-63.59,38.82,0,54.78,25,54.78,63.59v14.68c0,3.53-1.85,6-5,6" transform="translate(-4.92 -8.69)"/><path class="cls-1" d="M1515.71,179.94c0-21.2-11.68-33.43-28.53-33.43s-29.08,12-29.08,33.43V181h57.61Zm26.93,26.63h-84.82v.82c0,15.76,6.55,33.64,32.63,34.31,20.85.53,36.75-1.9,50-1.9h.82c2.72,0,4.89,1.36,4.89,4.08V261.2c0,4.35-.82,6.25-5.71,7.06-17.66,3.27-28.26,4.63-52.72,4.63-27.18,0-63.88-14.68-63.88-68.22V184.56c0-42.4,21.75-69,63.34-69,41.85,0,60.89,28.54,60.89,69v15.22c0,4.35-1.63,6.79-5.43,6.79" transform="translate(-4.92 -8.69)"/><path class="cls-1" d="M1418,270.85h-26.33c-3,0-4.35-.82-7.33-5.44l-31.52-47-28.82,47c-3,4.62-4.34,5.44-7.34,5.44h-28a2.93,2.93,0,0,1-3.26-3,4.35,4.35,0,0,1,.82-2.45l48.64-73.65L1288.9,123a3.81,3.81,0,0,1-.55-1.63,4.21,4.21,0,0,1,4.35-3.81h26.4c3,0,4.34,1.36,7.06,5.44l30.33,45.7,27.25-45.7c3-4.9,4.35-5.44,7.34-5.44h28a2.93,2.93,0,0,1,3.26,3,4.42,4.42,0,0,1-.81,2.45l-47.19,72.16,47.15,70.24a3.88,3.88,0,0,1,.55,1.91c0,1.9-1.9,3.53-4.08,3.53" transform="translate(-4.92 -8.69)"/><path class="cls-1" d="M1802.59,155.74a20.09,20.09,0,0,1-5-8.54,35.66,35.66,0,0,1-1.59-10.59q0-9.48,3.49-15.88t12-6.4H1826c5.42,0,9.13,2.19,11.1,6.55a37.9,37.9,0,0,1,3,15.73,38.74,38.74,0,0,1-1.62,11.72,17.58,17.58,0,0,1-4.77,8,11.07,11.07,0,0,1-7.68,2.85h-14.58A12.06,12.06,0,0,1,1802.59,155.74Zm23.17.77a8.94,8.94,0,0,0,5.9-2.18,14,14,0,0,0,4.07-6.64,35.56,35.56,0,0,0,1.47-11.08q0-8.75-2.54-14.2A8.83,8.83,0,0,0,1826,117h-14.58a11,11,0,0,0-9.09,4.56q-3.51,4.56-3.51,15.52a31.37,31.37,0,0,0,1.4,9.46,17.14,17.14,0,0,0,4.26,7.22,9.53,9.53,0,0,0,6.94,2.79Zm-17-32.88h11.08a8.71,8.71,0,0,1,5.66,1.72q2.12,1.71,2.11,6.24a8.34,8.34,0,0,1-.91,4.35,4.45,4.45,0,0,1-2,1.9,19.9,19.9,0,0,1-2.94.79l6.24,11.14H1825l-6.12-11.14-7.28-.25v11.39h-2.88Zm11.2,12.74a5.75,5.75,0,0,0,3.67-.92c.74-.61,1.11-1.88,1.11-3.79s-.41-3.35-1.23-4.17a4.78,4.78,0,0,0-3.55-1.22h-8.32v10.1Z" transform="translate(-4.92 -8.69)"/></svg>